<svg xmlns="http://www.w3.org/2000/svg" viewBox="0 0 1024 1024" width="256" height="256" role="img" aria-label="Space Radar"><title>Space Radar</title>
<defs><clipPath id="p"><circle cx="512" cy="512" r="206"/></clipPath><linearGradient id="t0" gradientUnits="userSpaceOnUse" x1="784.7" y1="283.2" x2="638.4" y2="179.2"><stop offset="0" stop-color="rgb(255,255,255)"/><stop offset="1" stop-color="rgb(217,217,217)"/></linearGradient><linearGradient id="t1" gradientUnits="userSpaceOnUse" x1="638.4" y1="179.2" x2="460.0" y2="159.8"><stop offset="0" stop-color="rgb(217,217,217)"/><stop offset="1" stop-color="rgb(180,180,180)"/></linearGradient><linearGradient id="t2" gradientUnits="userSpaceOnUse" x1="460.0" y1="159.8" x2="294.8" y2="229.9"><stop offset="0" stop-color="rgb(180,180,180)"/><stop offset="1" stop-color="rgb(147,147,147)"/></linearGradient><linearGradient id="t3" gradientUnits="userSpaceOnUse" x1="294.8" y1="229.9" x2="184.8" y2="371.8"><stop offset="0" stop-color="rgb(147,147,147)"/><stop offset="1" stop-color="rgb(116,116,116)"/></linearGradient><linearGradient id="t4" gradientUnits="userSpaceOnUse" x1="184.8" y1="371.8" x2="158.0" y2="549.2"><stop offset="0" stop-color="rgb(116,116,116)"/><stop offset="1" stop-color="rgb(87,87,87)"/></linearGradient><linearGradient id="t5" gradientUnits="userSpaceOnUse" x1="158.0" y1="549.2" x2="221.1" y2="717.2"><stop offset="0" stop-color="rgb(87,87,87)"/><stop offset="1" stop-color="rgb(62,62,62)"/></linearGradient><linearGradient id="t6" gradientUnits="userSpaceOnUse" x1="221.1" y1="717.2" x2="358.2" y2="833.1"><stop offset="0" stop-color="rgb(62,62,62)"/><stop offset="1" stop-color="rgb(39,39,39)"/></linearGradient><linearGradient id="t7" gradientUnits="userSpaceOnUse" x1="358.2" y1="833.1" x2="534.4" y2="867.3"><stop offset="0" stop-color="rgb(39,39,39)"/><stop offset="1" stop-color="rgb(21,21,21)"/></linearGradient><linearGradient id="t8" gradientUnits="userSpaceOnUse" x1="534.4" y1="867.3" x2="704.8" y2="811.2"><stop offset="0" stop-color="rgb(21,21,21)"/><stop offset="1" stop-color="rgb(7,7,7)"/></linearGradient><linearGradient id="t9" gradientUnits="userSpaceOnUse" x1="704.8" y1="811.2" x2="826.3" y2="679.1"><stop offset="0" stop-color="rgb(7,7,7)"/><stop offset="1" stop-color="rgb(0,0,0)"/></linearGradient><mask id="trail" maskUnits="userSpaceOnUse" x="0" y="0" width="1024" height="1024"><g style="isolation:isolate"><rect width="1024" height="1024" fill="#000"/><path d="M806.93 264.53L801.97 258.84L796.90 253.25L791.73 247.76L786.45 242.37L781.06 237.09L775.58 231.92L769.99 226.86L764.31 221.91L758.53 217.07L752.66 212.35L746.70 207.74L740.65 203.25L734.52 198.88L728.30 194.64L722.00 190.52L715.63 186.52L709.17 182.65L702.65 178.90L696.05 175.29L689.38 171.81L682.65 168.46L675.86 165.24L669.00 162.15L662.09 159.20L655.12 156.39L648.10 153.72L628.74 204.69L634.71 207.09L640.64 209.62L646.51 212.26L652.34 215.02L658.10 217.88L663.81 220.86L669.45 223.95L675.03 227.15L680.55 230.46L686.00 233.87L691.38 237.39L696.69 241.02L701.93 244.74L707.09 248.57L712.18 252.50L717.18 256.52L722.11 260.65L726.95 264.86L731.71 269.17L736.38 273.58L740.96 278.07L745.45 282.65L749.86 287.31L754.17 292.06L758.38 296.90L762.50 301.81Z" fill="url(#t0)" style="mix-blend-mode:lighten"/><path d="M669.83 162.52L662.09 159.20L654.28 156.06L646.41 153.10L638.47 150.30L630.48 147.69L622.43 145.25L614.33 142.98L606.19 140.90L598.00 138.99L589.78 137.27L581.52 135.72L573.23 134.36L564.92 133.18L556.58 132.19L548.22 131.38L539.85 130.75L531.47 130.30L523.09 130.04L514.70 129.96L506.31 130.07L497.93 130.36L489.56 130.84L481.21 131.50L472.87 132.34L464.56 133.37L456.27 134.57L463.72 185.07L470.92 184.16L478.13 183.41L485.36 182.82L492.60 182.39L499.84 182.12L507.09 182.01L514.33 182.05L521.57 182.26L528.80 182.62L536.03 183.15L543.23 183.83L550.42 184.67L557.58 185.66L564.73 186.82L571.84 188.13L578.92 189.59L585.96 191.21L592.97 192.98L599.93 194.91L606.85 196.99L613.72 199.22L620.54 201.60L627.30 204.12L634.00 206.80L640.64 209.62L647.22 212.59Z" fill="url(#t1)" style="mix-blend-mode:lighten"/><path d="M479.42 131.66L471.09 132.55L462.78 133.61L454.49 134.86L446.24 136.28L438.02 137.89L429.85 139.68L421.71 141.64L413.62 143.79L405.58 146.11L397.60 148.60L389.67 151.27L381.81 154.12L374.01 157.13L366.28 160.31L358.63 163.66L351.05 167.18L343.55 170.87L336.14 174.71L328.82 178.72L321.58 182.89L314.44 187.21L307.40 191.69L300.46 196.32L293.62 201.10L286.90 206.03L280.28 211.10L309.30 248.79L315.17 244.46L321.13 240.26L327.19 236.20L333.32 232.28L339.55 228.48L345.85 224.83L352.23 221.32L358.68 217.95L365.21 214.72L371.80 211.64L378.46 208.70L385.18 205.91L391.95 203.27L398.79 200.78L405.67 198.44L412.60 196.26L419.58 194.22L426.59 192.34L433.65 190.62L440.74 189.05L447.86 187.63L455.01 186.38L462.18 185.28L469.38 184.34L476.59 183.56L483.81 182.93Z" fill="url(#t2)" style="mix-blend-mode:lighten"/><path d="M298.99 197.33L292.17 202.14L285.47 207.10L278.88 212.21L272.40 217.46L266.04 222.85L259.80 228.37L253.69 234.03L247.70 239.82L241.84 245.74L236.12 251.79L230.53 257.96L225.07 264.25L219.76 270.65L214.59 277.17L209.57 283.80L204.69 290.54L199.97 297.38L195.40 304.32L190.98 311.36L186.71 318.50L182.61 325.72L178.67 333.03L174.88 340.43L171.27 347.90L167.81 355.45L164.53 363.07L205.05 380.44L208.08 373.76L211.25 367.16L214.57 360.62L218.03 354.17L221.63 347.79L225.37 341.49L229.25 335.28L233.26 329.16L237.40 323.13L241.67 317.19L246.07 311.35L250.60 305.60L255.25 299.96L260.03 294.43L264.92 289.00L269.93 283.68L275.05 278.47L280.29 273.38L285.63 268.41L291.08 263.55L296.64 258.82L302.30 254.21L308.05 249.73L313.90 245.38L319.85 241.15L325.88 237.06Z" fill="url(#t3)" style="mix-blend-mode:lighten"/><path d="M174.10 342.02L170.51 349.51L167.10 357.08L163.85 364.72L160.77 372.42L157.86 380.19L155.12 388.02L152.56 395.91L150.17 403.85L147.95 411.84L145.92 419.87L144.05 427.95L142.37 436.06L140.87 444.21L139.54 452.38L138.40 460.58L137.43 468.80L136.65 477.04L136.05 485.30L135.63 493.56L135.39 501.83L135.33 510.10L135.45 518.37L135.76 526.63L136.25 534.88L136.91 543.12L137.76 551.33L178.14 547.09L177.52 539.75L177.07 532.39L176.78 525.03L176.65 517.67L176.68 510.31L176.87 502.95L177.23 495.60L177.74 488.26L178.42 480.93L179.25 473.63L180.25 466.34L181.41 459.08L182.72 451.85L184.20 444.65L185.83 437.49L187.61 430.37L189.56 423.28L191.65 416.25L193.90 409.26L196.31 402.33L198.86 395.45L201.56 388.63L204.42 381.88L207.41 375.19L210.56 368.57L213.85 362.02Z" fill="url(#t4)" style="mix-blend-mode:lighten"/><path d="M135.85 528.40L136.37 536.65L137.08 544.88L137.97 553.09L139.03 561.28L140.28 569.45L141.70 577.58L143.31 585.68L145.09 593.74L147.04 601.75L149.17 609.73L151.48 617.65L153.95 625.51L156.60 633.32L159.42 641.07L162.41 648.75L165.56 656.36L168.89 663.90L172.37 671.36L176.02 678.75L179.83 686.05L183.79 693.26L187.91 700.38L192.19 707.41L196.62 714.35L201.20 721.18L205.93 727.91L236.26 706.51L232.12 700.37L228.12 694.14L224.25 687.83L220.53 681.43L216.94 674.95L213.50 668.40L210.21 661.78L207.06 655.09L204.06 648.33L201.21 641.51L198.51 634.62L195.97 627.69L193.58 620.70L191.34 613.66L189.26 606.57L187.33 599.45L185.56 592.28L183.95 585.08L182.50 577.85L181.21 570.58L180.07 563.30L179.10 555.99L178.29 548.66L177.64 541.32L177.15 533.97L176.83 526.61Z" fill="url(#t5)" style="mix-blend-mode:lighten"/><path d="M193.13 708.91L197.59 715.82L202.20 722.63L206.96 729.34L211.87 735.94L216.91 742.42L222.10 748.80L227.43 755.06L232.89 761.20L238.48 767.21L244.20 773.10L250.05 778.86L256.02 784.50L262.12 789.99L268.33 795.35L274.65 800.58L281.09 805.66L287.64 810.60L294.29 815.39L301.05 820.03L307.90 824.53L314.85 828.87L321.89 833.06L329.02 837.09L336.24 840.96L343.53 844.67L350.91 848.22L365.45 817.88L358.80 814.53L352.23 811.02L345.74 807.38L339.34 803.59L333.02 799.67L326.79 795.61L320.65 791.41L314.60 787.08L308.66 782.62L302.81 778.04L297.07 773.32L291.43 768.48L285.91 763.53L280.49 758.45L275.19 753.25L270.00 747.94L264.94 742.52L259.99 736.99L255.17 731.36L250.48 725.62L245.91 719.78L241.47 713.85L237.17 707.82L233.00 701.69L228.96 695.48L225.07 689.19Z" fill="url(#t6)" style="mix-blend-mode:lighten"/><path d="M330.56 837.93L337.79 841.77L345.11 845.45L352.50 848.96L359.97 852.31L367.50 855.50L375.10 858.52L382.77 861.37L390.50 864.05L398.28 866.56L406.11 868.90L413.99 871.07L421.91 873.06L429.88 874.88L437.88 876.52L445.91 877.98L453.97 879.27L462.06 880.38L470.16 881.32L478.29 882.07L486.43 882.65L494.57 883.05L502.72 883.26L510.88 883.30L519.03 883.16L527.17 882.84L535.30 882.35L533.41 852.25L525.93 852.56L518.45 852.71L510.97 852.69L503.49 852.51L496.02 852.17L488.56 851.66L481.12 850.99L473.69 850.16L466.29 849.16L458.91 848.00L451.56 846.68L444.24 845.20L436.96 843.56L429.72 841.76L422.52 839.80L415.37 837.69L408.27 835.42L401.22 832.99L394.22 830.41L387.29 827.68L380.42 824.80L373.61 821.76L366.88 818.58L360.22 815.26L353.63 811.79L347.13 808.17Z" fill="url(#t7)" style="mix-blend-mode:lighten"/><path d="M512.62 883.29L520.77 883.11L528.91 882.75L537.04 882.22L545.16 881.50L553.25 880.61L561.32 879.54L569.37 878.30L577.38 876.88L585.36 875.28L593.30 873.51L601.20 871.57L609.05 869.45L616.85 867.16L624.60 864.70L632.29 862.07L639.92 859.28L647.49 856.32L654.98 853.19L662.41 849.90L669.76 846.45L677.03 842.84L684.22 839.07L691.32 835.15L698.33 831.07L705.25 826.84L712.07 822.45L697.62 800.03L691.22 803.97L684.72 807.77L678.15 811.42L671.51 814.93L664.78 818.29L657.99 821.51L651.13 824.57L644.21 827.48L637.22 830.23L630.18 832.84L623.09 835.28L615.94 837.57L608.75 839.70L601.51 841.68L594.23 843.49L586.92 845.14L579.57 846.63L572.20 847.96L564.80 849.13L557.37 850.13L549.93 850.97L542.48 851.65L535.01 852.16L527.53 852.51L520.05 852.69L512.57 852.71Z" fill="url(#t8)" style="mix-blend-mode:lighten"/><path d="M692.83 834.28L699.82 830.17L706.72 825.91L713.52 821.50L720.23 816.94L726.83 812.23L733.32 807.38L739.71 802.39L745.98 797.27L752.14 792.01L758.17 786.61L764.09 781.09L769.89 775.43L775.55 769.66L781.09 763.76L786.50 757.74L791.77 751.61L796.90 745.36L801.90 739.00L806.75 732.54L811.46 725.97L816.02 719.31L820.44 712.54L824.70 705.68L828.81 698.73L832.77 691.70L836.57 684.58L816.09 673.69L812.40 680.29L808.57 686.80L804.60 693.23L800.48 699.57L796.24 705.81L791.85 711.96L787.33 718.01L782.69 723.96L777.91 729.80L773.01 735.54L767.98 741.17L762.84 746.68L757.57 752.08L752.19 757.36L746.69 762.51L741.09 767.55L735.37 772.46L729.55 777.24L723.63 781.90L717.61 786.42L711.50 790.80L705.28 795.05L698.98 799.17L692.60 803.14L686.12 806.97L679.57 810.65Z" fill="url(#t9)" style="mix-blend-mode:lighten"/></g></mask></defs>
<circle cx="512" cy="512" r="206" fill="#2E6FB8"/><g clip-path="url(#p)"><circle cx="619" cy="574" r="235" fill="#123255"/></g>
<circle cx="512" cy="512" r="206" fill="none" stroke="#6EC3FF" stroke-opacity=".6" stroke-width="7"/>
<rect width="1024" height="1024" fill="#FF9F43" mask="url(#trail)"/><circle cx="784.7" cy="283.2" r="66" fill="#FF9F43"/></svg>
